<svg width="10" height="11" viewBox="0 0 10 11" fill="none" xmlns="http://www.w3.org/2000/svg">
<path d="M5 5.5C6.57812 5.5 7.85714 4.26895 7.85714 2.75C7.85714 1.23105 6.57812 0 5 0C3.42188 0 2.14286 1.23105 2.14286 2.75C2.14286 4.26895 3.42188 5.5 5 5.5ZM7.13839 6.20039L6.07143 10.3125L5.35714 7.39062L6.07143 6.1875H3.92857L4.64286 7.39062L3.92857 10.3125L2.86161 6.20039C1.27009 6.27344 0 7.52598 0 9.075V9.96875C0 10.5381 0.479911 11 1.07143 11H8.92857C9.52009 11 10 10.5381 10 9.96875V9.075C10 7.52598 8.72991 6.27344 7.13839 6.20039Z" fill="#B94A5B"/>
</svg>
