<svg xmlns="http://www.w3.org/2000/svg" viewBox="0 0 100 100" fill="#ffffff">
  <path d="M64.9,47.4c-8.2,0-15,6.7-15,15c0,8.2,6.7,15,15,15s15-6.7,15-15S73.1,47.4,64.9,47.4z M72.2,60.5l-2.8,2.8 c-0.3,0.3-0.4,0.6-0.4,0.8l0.7,4.2c0.2,1.2-0.9,0.5-0.9,0.5L65.4,67c-0.5-0.3-1,0-1,0l-3.5,1.8c-0.9,0.5-0.9,0-0.9-0.4l0.7-3.9 c0.1-0.8-0.3-1.1-0.3-1.2l-2.5-2.4l-0.3-0.3c-0.3-0.3-0.5-0.8,0.6-1l3.5-0.5c0.5-0.1,0.8-0.3,0.9-0.5l1.9-3.9 c0.1-0.3,0.5-0.6,0.9,0.2l1.9,3.8c0.1,0.2,0.4,0.3,0.6,0.4h0.3l3.7,0.5H72C72.2,59.7,72.9,59.9,72.2,60.5z"></path>
  <path d="M48.9,77.2c1,0,1.6-1.2,1-2c-3.2-3.6-5-8.2-5-13c0-3.4,1.1-7.2,2.9-10.2c2.1-3.6,4.5-5.1,6.4-7.9 c3.1-4.6,3.7-11.2,1.7-16.2c-2-5.1-6.7-8.1-12.2-8s-10,3.5-11.7,8.6c-2,5.6-1.1,12.4,3.4,16.6c1.9,1.7,3.5,4.4,2.6,7 c-0.2,0.5-0.8,1.3-2.2,1.9c-5.7,2.5-11.5,5.5-14.1,9.7c-0.5,0.8-1.5,2.8-1.6,5.6l0,0c0,0.7,0,1.3,0.1,2.2c0,0.4,0,0.4,0.1,0.8 c0.3,1.7,1.3,3.2,2.8,4.1c0.6,0.3,2,0.8,4.7,0.8H48.9z"></path>
</svg>
